<svg xmlns="http://www.w3.org/2000/svg" xmlns:xlink="http://www.w3.org/1999/xlink" viewBox="0 0 1405.57 940.94"><defs><style>.cls-1{fill:url(#linear-gradient);}.cls-2{fill:url(#linear-gradient-2);}.cls-3{fill:url(#linear-gradient-3);}.cls-4{fill:url(#linear-gradient-4);}.cls-5{fill:url(#linear-gradient-5);}.cls-6{fill:url(#linear-gradient-6);}.cls-7{fill:url(#linear-gradient-7);}.cls-8{fill:url(#linear-gradient-8);}.cls-9{fill:url(#linear-gradient-9);}</style><linearGradient id="linear-gradient" x1="579.28" y1="-87.93" x2="-51.87" y2="442.12" gradientUnits="userSpaceOnUse"><stop offset="0.01" stop-color="#00d4ec"/><stop offset="1" stop-color="#3fa9f5"/></linearGradient><linearGradient id="linear-gradient-2" x1="350.96" y1="901.65" x2="188.57" y2="449.22" gradientUnits="userSpaceOnUse"><stop offset="0" stop-color="#5e7ad3"/><stop offset="1" stop-color="#0dd3e8"/></linearGradient><linearGradient id="linear-gradient-3" x1="-316.2" y1="1255.03" x2="886.86" y2="-207.44" xlink:href="#linear-gradient-2"/><linearGradient id="linear-gradient-4" x1="480.03" y1="925.72" x2="242.56" y2="262.48" xlink:href="#linear-gradient-2"/><linearGradient id="linear-gradient-5" x1="1011.19" y1="-25.6" x2="740.81" y2="155.93" xlink:href="#linear-gradient"/><linearGradient id="linear-gradient-6" x1="1215.9" y1="-152.16" x2="687.39" y2="217.03" xlink:href="#linear-gradient"/><linearGradient id="linear-gradient-7" x1="910.24" y1="890.23" x2="1367.77" y2="-41.17" gradientUnits="userSpaceOnUse"><stop offset="0" stop-color="#5e7ad3"/><stop offset="1" stop-color="#0fd3e7"/></linearGradient><linearGradient id="linear-gradient-8" x1="1243.62" y1="839.5" x2="1198.78" y2="84.86" xlink:href="#linear-gradient-7"/><linearGradient id="linear-gradient-9" x1="454.72" y1="-14.8" x2="-0.77" y2="627.59" xlink:href="#linear-gradient"/></defs><title>Logo1</title><g id="Layer_2" data-name="Layer 2"><g id="Layer_1-2" data-name="Layer 1"><path class="cls-1" d="M655.72,0V135.07H213.11q-78,7.23-78,77.38v278Q74.4,513.77,21.78,570.64,10.71,582.6,0,596V202.61Q0,83.29,122.62,17A226.46,226.46,0,0,1,209.83,0Z"/><path class="cls-2" d="M656.37,903.58v37.36h-436q-97-.66-153.43-54.42Q0,822.92,0,738.33V701.61q0-35,12-65.33a188.15,188.15,0,0,0-2,28V701q0,84.59,66.88,148.19,56.38,53.77,153.44,54.43Z"/><path class="cls-3" d="M655.06,268.84V292L89.27,545.86l-1.66.68q26.34-18.12,60.58-33.12Z"/><path class="cls-4" d="M656.37,803.9v99.68H230.26q-97-.66-153.44-54.43Q9.94,785.57,9.94,701V664.24a188.15,188.15,0,0,1,2-28q20.4-51.72,75.64-89.74l1.66-.68L655.06,292V414.41L150.16,664.23a87,87,0,0,0-7.11,10.46q-1.52,2.61-2.78,5.28a71.71,71.71,0,0,0-7.16,31.47v14.43q0,56.4,44.59,74.1,8.52,4.59,68.19,3.93Z"/><path class="cls-5" d="M1106.57,0A320.89,320.89,0,0,0,1070,23q-64.38,47.15-76.88,113.38H749.86V0Z"/><path class="cls-6" d="M1070,23q-64.38,47.15-76.88,113.38H774.86V23Z"/><path class="cls-7" d="M1405.57,0V136.38h-189.5q-68.85,9.19-72.78,65.58V940.29H1012.14V211.79q.65-135.73,130.49-196.71Q1177.37,0,1250.17,0Z"/><path class="cls-8" d="M1404.57,23V136.38h-189.5q-68.85,9.19-72.78,65.58V940.29H1040.14V234.79q.64-135.73,130.49-196.71Q1205.37,23,1278.17,23Z"/><path class="cls-9" d="M655.72,22.82V135.07H213.11q-78,7.23-78,77.38v278Q74.4,513.77,21.78,570.64V225.44q0-119.34,122.62-185.57a226.43,226.43,0,0,1,87.21-17Z"/></g></g></svg>